# xmcd
#
# Track frame offsets: 
#        150
#        12804
#        32242
#        49845
#        73739
#        94977
#        112795
#        126833
#        144626
#        172268
#        192993
#        212386
#        244165
#        263662
#        279364
#
# Disc length: 4457 seconds
#
# Revision: 1
# Processed by: cddbd v1.5.2PL0 Copyright (c) Steve Scherf et al.
# Submitted via: ExactAudioCopy v1.1
#
DISCID=d911670f
DTITLE=Various Artist - Ultimate Smooth Jazz
DYEAR=2009
DGENRE=Jazz
TTITLE0=Gábor Szabó - Sealed with a Kiss
TTITLE1=2Play - Morning Dance
TTITLE2=Jazz Urbaine - What the World Needs Now Is Love
TTITLE3=Bob James - Shamboozie
TTITLE4=Kymaera - Linving on the Fault Line
TTITLE5=The Brecon Brothers - Pick Up the Pieces
TTITLE6=Grupo Cabana - Once I Loved
TTITLE7=Kymaera - Fifty Ways to Leave Your Lover
TTITLE8=Richard Tee - Now
TTITLE9=Kymaera - Fly Like an Eagle
TTITLE10=Pee Wee Russell - That Old Feeling
TTITLE11=Adderley Brothers - Caribbean Cutie
TTITLE12=Kymaera - Fragile
TTITLE13=EJQ - Stride Out
TTITLE14=Sonny Stitt - Medley
EXTD=YEAR: 2009
EXTT0=
EXTT1=
EXTT2=
EXTT3=
EXTT4=
EXTT5=
EXTT6=
EXTT7=
EXTT8=
EXTT9=
EXTT10=
EXTT11=
EXTT12=
EXTT13=
EXTT14=
PLAYORDER=
